<?xml version="1.0" standalone="no"?><svg xmlns="http://www.w3.org/2000/svg" viewBox="0 0 1440 320"><path fill="#e7008a" fill-opacity="1" d="M0,64L34.3,101.3C68.6,139,137,213,206,208C274.3,203,343,117,411,101.3C480,85,549,139,617,160C685.7,181,754,171,823,144C891.4,117,960,75,1029,90.7C1097.1,107,1166,181,1234,218.7C1302.9,256,1371,256,1406,256L1440,256L1440,0L1405.7,0C1371.4,0,1303,0,1234,0C1165.7,0,1097,0,1029,0C960,0,891,0,823,0C754.3,0,686,0,617,0C548.6,0,480,0,411,0C342.9,0,274,0,206,0C137.1,0,69,0,34,0L0,0Z"></path></svg>